<svg version="1.1" xmlns="http://www.w3.org/2000/svg" xmlns:xlink="http://www.w3.org/1999/xlink" width="189.21989" height="188.91111" viewBox="0,0,189.21989,188.91111"><g transform="translate(-145.28011,-85.56837)"><g data-paper-data="{&quot;isPaintingLayer&quot;:true}" fill-rule="nonzero" stroke-linejoin="miter" stroke-miterlimit="10" stroke-dasharray="" stroke-dashoffset="0" style="mix-blend-mode: normal"><path d="M208.65,211.53333c0,-34.73871 28.16129,-62.9 62.9,-62.9c34.73871,0 62.9,28.16129 62.9,62.9c0,34.73871 -28.16129,62.9 -62.9,62.9c-34.73871,0 -62.9,-28.16129 -62.9,-62.9z" fill="#0087aa" stroke="none" stroke-width="0" stroke-linecap="butt"/><path d="M208.65,148.90402c0,-34.73871 28.16129,-62.9 62.9,-62.9c34.73871,0 62.9,28.16129 62.9,62.9c0,34.73871 -28.16129,62.9 -62.9,62.9c-34.73871,0 -62.9,-28.16129 -62.9,-62.9z" fill="#0087aa" stroke="none" stroke-width="0" stroke-linecap="butt"/><path d="M208.5,274.44444v-63h63v63z" fill="#0087aa" stroke="none" stroke-width="0" stroke-linecap="butt"/><path d="M271.44444,211.5v-63h63v63z" fill="#0087aa" stroke="none" stroke-width="0" stroke-linecap="butt"/><path d="M208.5,148.92625v-63h63v63z" fill="#0087aa" stroke="none" stroke-width="0" stroke-linecap="butt"/><path d="M145.52069,148.78333c0,-34.73871 28.16129,-62.9 62.9,-62.9c34.73871,0 62.9,28.16129 62.9,62.9c0,34.73871 -28.16129,62.9 -62.9,62.9c-34.73871,0 -62.9,-28.16129 -62.9,-62.9z" fill="#0087aa" stroke="none" stroke-width="0" stroke-linecap="butt"/><path d="M145.65,211.28333c0,-34.73871 28.16129,-62.9 62.9,-62.9c34.73871,0 62.9,28.16129 62.9,62.9c0,34.73871 -28.16129,62.9 -62.9,62.9c-34.73871,0 -62.9,-28.16129 -62.9,-62.9z" fill="#0087aa" stroke="none" stroke-width="0" stroke-linecap="butt"/><path d="M208.5,211.5v-63h64.5v63z" fill="#0087aa" stroke="none" stroke-width="0" stroke-linecap="butt"/><path d="M146.00305,211.07948c0,-34.73871 28.16129,-62.9 62.9,-62.9c34.73871,0 62.9,28.16129 62.9,62.9c0,34.73871 -28.16129,62.9 -62.9,62.9c-34.73871,0 -62.9,-28.16129 -62.9,-62.9z" fill="none" stroke="#ffffff" stroke-width="1" stroke-linecap="butt"/><path d="M145.61111,211.5v-63h63v63z" fill="#0087aa" stroke="none" stroke-width="0" stroke-linecap="butt"/><path d="M208.65036,211.9c-34.72503,-0.01608 -62.87025,-28.1712 -62.87025,-62.89999c0,-34.73871 28.16129,-62.9 62.9,-62.9c34.7232,0 62.87485,28.13615 62.89999,62.85347" fill="none" stroke="#ffffff" stroke-width="1" stroke-linecap="butt"/><path d="M187.01923,160.41666v-20h21.5v20z" fill="#0087aa" stroke="#ffffff" stroke-width="0" stroke-linecap="butt"/><path d="M208.24703,148.16667v63.25" fill="none" stroke="#ffffff" stroke-width="1" stroke-linecap="round"/><path d="M208.1665,148.96837c0,-34.73871 28.16129,-62.9 62.9,-62.9c34.73871,0 62.9,28.16129 62.9,62.9c0,34.73871 -28.16129,62.9 -62.9,62.9c-34.73871,0 -62.9,-28.16129 -62.9,-62.9z" fill="none" stroke="#ffffff" stroke-width="1" stroke-linecap="butt"/><path d="M334,148.375v63.25" fill="none" stroke="#ffffff" stroke-width="1" stroke-linecap="round"/></g></g></svg>
